# xmcd
#
# Track frame offsets:
#	150
#	17911
#	33512
#	46976
#	66747
#	79505
#	96953
#	121301
#	138967
#	149328
#
# Disc length: 2231 seconds
#
# Revision: 0
# Processed by: cddbd v1.5.2PL0 Copyright (c) Steve Scherf et al.
# Submitted via: EasyCDDAExtractor 12.0.1.1
#
DISCID=8c08b50a
DTITLE=Duke Robillard - Essential Recordings: Rockin' Guitar Blues
DYEAR=2009
DGENRE=Electric Blues
TTITLE0=Give Me All The Love You Got
TTITLE1=Stop Knockin'
TTITLE2=Don't Look At My Girl Like That
TTITLE3=Too Hot To Handle
TTITLE4=What That Means To Me
TTITLE5=You Ain't The One
TTITLE6=T-Bone Boogie
TTITLE7=Don't Treat Me Like That
TTITLE8=Oh Babe
TTITLE9=Give Me Your Attention
EXTD=
EXTT0=
EXTT1=
EXTT2=
EXTT3=
EXTT4=
EXTT5=
EXTT6=
EXTT7=
EXTT8=
EXTT9=
PLAYORDER=
